<svg id="visual" viewBox="0 0 960 300" width="960" height="300" xmlns="http://www.w3.org/2000/svg" xmlns:xlink="http://www.w3.org/1999/xlink" version="1.1"><rect x="0" y="0" width="960" height="300" fill="#451d81"></rect><g transform="translate(476.7439885905506 131.98264950210506)"><path d="M72.8 -94.3C90.4 -87.5 98 -60.9 106.2 -34.7C114.4 -8.5 123.3 17.2 115.1 35.9C106.9 54.5 81.7 66.1 59.7 83.9C37.6 101.8 18.8 125.9 -3.8 131.1C-26.5 136.4 -52.9 122.8 -72.6 104.2C-92.2 85.6 -105.1 62 -109.8 37.9C-114.4 13.9 -111 -10.5 -102 -31.6C-93 -52.7 -78.5 -70.4 -60.6 -77.1C-42.7 -83.8 -21.4 -79.4 3.1 -83.7C27.6 -88 55.3 -101.1 72.8 -94.3" fill="#4FACF7"></path></g></svg>