<svg id="visual" viewBox="0 0 960 300" width="960" height="300" xmlns="http://www.w3.org/2000/svg" xmlns:xlink="http://www.w3.org/1999/xlink" version="1.1"><rect x="0" y="0" width="960" height="300" fill="#451d81"></rect><g transform="translate(481.24409473430507 139.50456666688393)"><path d="M65.9 -81.9C86.4 -75.9 104.5 -57.9 102.1 -39.3C99.6 -20.8 76.6 -1.7 66.4 19.1C56.2 39.9 59 62.4 50.1 83.7C41.1 105 20.6 125 2.1 122.2C-16.5 119.3 -32.9 93.6 -42.4 72.6C-51.9 51.5 -54.5 35 -66.1 17.2C-77.7 -0.5 -98.3 -19.6 -103.5 -42.9C-108.6 -66.2 -98.4 -93.8 -78.6 -100C-58.8 -106.2 -29.4 -91.1 -3.3 -86.5C22.7 -81.9 45.5 -87.9 65.9 -81.9" fill="#4FACF7"></path></g></svg>