<svg id="visual" viewBox="0 0 960 300" width="960" height="300" xmlns="http://www.w3.org/2000/svg" xmlns:xlink="http://www.w3.org/1999/xlink" version="1.1"><rect x="0" y="0" width="960" height="300" fill="#001220"></rect><path d="M0 72L16 74.5C32 77 64 82 96 84.5C128 87 160 87 192 86.3C224 85.7 256 84.3 288 81.2C320 78 352 73 384 71.3C416 69.7 448 71.3 480 69.8C512 68.3 544 63.7 576 66.2C608 68.7 640 78.3 672 81.7C704 85 736 82 768 81.2C800 80.3 832 81.7 864 80.5C896 79.3 928 75.7 944 73.8L960 72L960 301L944 301C928 301 896 301 864 301C832 301 800 301 768 301C736 301 704 301 672 301C640 301 608 301 576 301C544 301 512 301 480 301C448 301 416 301 384 301C352 301 320 301 288 301C256 301 224 301 192 301C160 301 128 301 96 301C64 301 32 301 16 301L0 301Z" fill="#715df2"></path><path d="M0 141L16 144.2C32 147.3 64 153.7 96 155.2C128 156.7 160 153.3 192 149.5C224 145.7 256 141.3 288 140.2C320 139 352 141 384 141C416 141 448 139 480 142C512 145 544 153 576 154.8C608 156.7 640 152.3 672 151.8C704 151.3 736 154.7 768 157.2C800 159.7 832 161.3 864 157.7C896 154 928 145 944 140.5L960 136L960 301L944 301C928 301 896 301 864 301C832 301 800 301 768 301C736 301 704 301 672 301C640 301 608 301 576 301C544 301 512 301 480 301C448 301 416 301 384 301C352 301 320 301 288 301C256 301 224 301 192 301C160 301 128 301 96 301C64 301 32 301 16 301L0 301Z" fill="#5d3cb7"></path><path d="M0 222L16 224.3C32 226.7 64 231.3 96 231.5C128 231.7 160 227.3 192 223.7C224 220 256 217 288 217.3C320 217.7 352 221.3 384 221.5C416 221.7 448 218.3 480 218.5C512 218.7 544 222.3 576 223.8C608 225.3 640 224.7 672 225.8C704 227 736 230 768 229C800 228 832 223 864 219.5C896 216 928 214 944 213L960 212L960 301L944 301C928 301 896 301 864 301C832 301 800 301 768 301C736 301 704 301 672 301C640 301 608 301 576 301C544 301 512 301 480 301C448 301 416 301 384 301C352 301 320 301 288 301C256 301 224 301 192 301C160 301 128 301 96 301C64 301 32 301 16 301L0 301Z" fill="#451d81"></path></svg>