<svg id="visual" viewBox="0 0 960 300" width="960" height="300" xmlns="http://www.w3.org/2000/svg" xmlns:xlink="http://www.w3.org/1999/xlink" version="1.1"><rect x="0" y="0" width="960" height="300" fill="#6600FF"></rect><path d="M0 198L26.7 202.3C53.3 206.7 106.7 215.3 160 220.5C213.3 225.7 266.7 227.3 320 222.2C373.3 217 426.7 205 480 201.5C533.3 198 586.7 203 640 206C693.3 209 746.7 210 800 211.5C853.3 213 906.7 215 933.3 216L960 217L960 0L933.3 0C906.7 0 853.3 0 800 0C746.7 0 693.3 0 640 0C586.7 0 533.3 0 480 0C426.7 0 373.3 0 320 0C266.7 0 213.3 0 160 0C106.7 0 53.3 0 26.7 0L0 0Z" fill="#715df2"></path><path d="M0 126L26.7 128.2C53.3 130.3 106.7 134.7 160 135C213.3 135.3 266.7 131.7 320 134.7C373.3 137.7 426.7 147.3 480 144.5C533.3 141.7 586.7 126.3 640 120.3C693.3 114.3 746.7 117.7 800 123.5C853.3 129.3 906.7 137.7 933.3 141.8L960 146L960 0L933.3 0C906.7 0 853.3 0 800 0C746.7 0 693.3 0 640 0C586.7 0 533.3 0 480 0C426.7 0 373.3 0 320 0C266.7 0 213.3 0 160 0C106.7 0 53.3 0 26.7 0L0 0Z" fill="#5d3cb7"></path><path d="M0 60L26.7 58C53.3 56 106.7 52 160 54C213.3 56 266.7 64 320 72C373.3 80 426.7 88 480 90.8C533.3 93.7 586.7 91.3 640 83.7C693.3 76 746.7 63 800 57.3C853.3 51.7 906.7 53.3 933.3 54.2L960 55L960 0L933.3 0C906.7 0 853.3 0 800 0C746.7 0 693.3 0 640 0C586.7 0 533.3 0 480 0C426.7 0 373.3 0 320 0C266.7 0 213.3 0 160 0C106.7 0 53.3 0 26.7 0L0 0Z" fill="#451d81"></path></svg>