<svg id="visual" viewBox="0 0 960 120" width="960" height="120" xmlns="http://www.w3.org/2000/svg" xmlns:xlink="http://www.w3.org/1999/xlink" version="1.1"><rect x="0" y="0" width="960" height="120" fill="#6600FF"></rect><path d="M0 87L16 87.3C32 87.7 64 88.3 96 89.2C128 90 160 91 192 91.5C224 92 256 92 288 91.5C320 91 352 90 384 89C416 88 448 87 480 87.8C512 88.7 544 91.3 576 91.3C608 91.3 640 88.7 672 87.5C704 86.3 736 86.7 768 87.3C800 88 832 89 864 89.3C896 89.7 928 89.3 944 89.2L960 89L960 0L944 0C928 0 896 0 864 0C832 0 800 0 768 0C736 0 704 0 672 0C640 0 608 0 576 0C544 0 512 0 480 0C448 0 416 0 384 0C352 0 320 0 288 0C256 0 224 0 192 0C160 0 128 0 96 0C64 0 32 0 16 0L0 0Z" fill="#715df2"></path><path d="M0 64L16 64C32 64 64 64 96 63.3C128 62.7 160 61.3 192 60.3C224 59.3 256 58.7 288 59.5C320 60.3 352 62.7 384 63.8C416 65 448 65 480 64.3C512 63.7 544 62.3 576 61.5C608 60.7 640 60.3 672 59.5C704 58.7 736 57.3 768 56.3C800 55.3 832 54.7 864 55.2C896 55.7 928 57.3 944 58.2L960 59L960 0L944 0C928 0 896 0 864 0C832 0 800 0 768 0C736 0 704 0 672 0C640 0 608 0 576 0C544 0 512 0 480 0C448 0 416 0 384 0C352 0 320 0 288 0C256 0 224 0 192 0C160 0 128 0 96 0C64 0 32 0 16 0L0 0Z" fill="#5d3cb7"></path><path d="M0 35L16 33.5C32 32 64 29 96 27.8C128 26.7 160 27.3 192 28C224 28.7 256 29.3 288 30.3C320 31.3 352 32.7 384 32.2C416 31.7 448 29.3 480 29C512 28.7 544 30.3 576 30.3C608 30.3 640 28.7 672 28.8C704 29 736 31 768 31C800 31 832 29 864 28.8C896 28.7 928 30.3 944 31.2L960 32L960 0L944 0C928 0 896 0 864 0C832 0 800 0 768 0C736 0 704 0 672 0C640 0 608 0 576 0C544 0 512 0 480 0C448 0 416 0 384 0C352 0 320 0 288 0C256 0 224 0 192 0C160 0 128 0 96 0C64 0 32 0 16 0L0 0Z" fill="#451d81"></path></svg>