<svg id="visual" viewBox="0 0 960 300" width="960" height="300" xmlns="http://www.w3.org/2000/svg" xmlns:xlink="http://www.w3.org/1999/xlink" version="1.1"><rect x="0" y="0" width="960" height="300" fill="#001220"></rect><path d="M0 224L16 221.8C32 219.7 64 215.3 96 213.5C128 211.7 160 212.3 192 213.2C224 214 256 215 288 218.7C320 222.3 352 228.7 384 231.2C416 233.7 448 232.3 480 229.2C512 226 544 221 576 218.8C608 216.7 640 217.3 672 217C704 216.7 736 215.3 768 214.8C800 214.3 832 214.7 864 214.2C896 213.7 928 212.3 944 211.7L960 211L960 0L944 0C928 0 896 0 864 0C832 0 800 0 768 0C736 0 704 0 672 0C640 0 608 0 576 0C544 0 512 0 480 0C448 0 416 0 384 0C352 0 320 0 288 0C256 0 224 0 192 0C160 0 128 0 96 0C64 0 32 0 16 0L0 0Z" fill="#715df2"></path><path d="M0 144L16 142.5C32 141 64 138 96 141C128 144 160 153 192 153C224 153 256 144 288 143.5C320 143 352 151 384 155.5C416 160 448 161 480 159.5C512 158 544 154 576 152.8C608 151.7 640 153.3 672 154.2C704 155 736 155 768 154.7C800 154.3 832 153.7 864 154C896 154.3 928 155.7 944 156.3L960 157L960 0L944 0C928 0 896 0 864 0C832 0 800 0 768 0C736 0 704 0 672 0C640 0 608 0 576 0C544 0 512 0 480 0C448 0 416 0 384 0C352 0 320 0 288 0C256 0 224 0 192 0C160 0 128 0 96 0C64 0 32 0 16 0L0 0Z" fill="#5d3cb7"></path><path d="M0 68L16 69.5C32 71 64 74 96 72.7C128 71.3 160 65.7 192 66.3C224 67 256 74 288 78C320 82 352 83 384 82.2C416 81.3 448 78.7 480 75.7C512 72.7 544 69.3 576 66.8C608 64.3 640 62.7 672 66.3C704 70 736 79 768 79.7C800 80.3 832 72.7 864 70.7C896 68.7 928 72.3 944 74.2L960 76L960 0L944 0C928 0 896 0 864 0C832 0 800 0 768 0C736 0 704 0 672 0C640 0 608 0 576 0C544 0 512 0 480 0C448 0 416 0 384 0C352 0 320 0 288 0C256 0 224 0 192 0C160 0 128 0 96 0C64 0 32 0 16 0L0 0Z" fill="#451d81"></path></svg>